<?xml version="1.0" encoding="utf-8"?>
<!-- Generator: Adobe Illustrator 24.0.0, SVG Export Plug-In . SVG Version: 6.00 Build 0)  -->
<svg version="1.1" xmlns="http://www.w3.org/2000/svg" xmlns:xlink="http://www.w3.org/1999/xlink" x="0px" y="0px"
	 viewBox="0 0 256 256" style="enable-background:new 0 0 256 256;" xml:space="preserve">
<style type="text/css">
	.st0{fill:#F98FA6;}
	.st1{fill:#FC657E;}
	.st2{fill:#DAE6F1;}
	.st3{fill:#5290DB;}
	.st4{fill:#FCDD86;}
	.st5{fill:#F5C84C;}
	.st6{fill:#87D147;}
	.st7{fill:#70D6F9;}
	.st8{fill:#EDF4FC;}
	.st9{fill:#9BE5F9;}
	.st10{fill:#B2E26D;}
	.st11{fill:#F9C1A8;}
	.st12{fill:#414344;}
	.st13{fill:#E1FBFF;}
	.st14{fill:#FFE3EC;}
	.st15{fill:#FCBECF;}
	.st16{fill:#EF4460;}
	.st17{fill:#80C2F9;}
	.st18{fill:#3A70BF;}
	.st19{fill:#FCA265;}
	.st20{fill:#5B5D60;}
	.st21{fill:#818182;}
	.st22{fill:#C7D7E5;}
	.st23{fill:#F9D0B4;}
	.st24{fill:#AA6F59;}
	.st25{fill:#D1856D;}
	.st26{fill:#FCC29A;}
	.st27{fill:#29589F;}
	.st28{fill:#F7B386;}
	.st29{fill:#FC8C48;}
	.st30{fill:#FFF0CC;}
	.st31{fill:#57AF12;}
	.st32{fill:#3CAADC;}
	.st33{fill:#EDB311;}
	.st34{fill:#231F20;}
</style>
<g id="Layer_1">
</g>
<g id="Layer_2">
</g>
<g id="Layer_3">
</g>
<g id="Layer_4">
</g>
<g id="Layer_5">
</g>
<g id="Layer_6">
</g>
<g id="Layer_7">
</g>
<g id="Layer_8">
</g>
<g id="Layer_9">
</g>
<g id="Layer_10">
</g>
<g id="Layer_11">
</g>
<g id="Layer_12">
</g>
<g id="Layer_13">
</g>
<g id="Layer_14">
</g>
<g id="Layer_15">
</g>
<g id="Layer_16">
</g>
<g id="Layer_17">
</g>
<g id="Layer_18">
</g>
<g id="Layer_19">
</g>
<g id="Layer_20">
</g>
<g id="Layer_21">
</g>
<g id="Layer_22">
</g>
<g id="Layer_23">
</g>
<g id="Layer_24">
</g>
<g id="Layer_25">
</g>
<g id="Layer_26">
</g>
<g id="Layer_27">
</g>
<g id="Layer_28">
</g>
<g id="Layer_29">
</g>
<g id="Layer_30">
</g>
<g id="Layer_31">
</g>
<g id="Layer_32">
</g>
<g id="Layer_33">
</g>
<g id="Layer_34">
</g>
<g id="Layer_35">
</g>
<g id="Layer_36">
</g>
<g id="Layer_37">
</g>
<g id="Layer_38">
</g>
<g id="Layer_39">
</g>
<g id="Layer_40">
</g>
<g id="Layer_41">
</g>
<g id="Layer_42">
</g>
<g id="Layer_43">
	<g>
		<g>
			<g>
				<path class="st4" d="M98.667,145.468c3.356-8.39,3.27-14.839,2.39-19.138c-1.976,1.469-4.415,2.349-7.067,2.349
					c-0.647,0-1.277-0.066-1.896-0.166c-0.667,9.946-6.503,18.535-14.833,23.075v8.62c0,3.009,1.709,5.757,4.408,7.088l7.028,3.465
					c1.571,0.774,3.219,1.38,4.918,1.808l14.331,3.618C109.214,162.908,94.858,154.992,98.667,145.468z"/>
			</g>
		</g>
		<g>
			<g>
				<path class="st4" d="M35.388,128.514c-0.619,0.1-1.249,0.166-1.896,0.166c-2.651,0-5.091-0.88-7.067-2.349
					c-0.88,4.299-0.966,10.748,2.39,19.138c3.809,9.524-10.547,17.44-9.279,30.72l14.331-3.618c1.698-0.428,3.347-1.034,4.918-1.808
					l7.028-3.465c2.699-1.331,4.408-4.079,4.408-7.088v-8.62C41.891,147.049,36.055,138.46,35.388,128.514z"/>
			</g>
		</g>
		<g>
			<g>
				<path class="st1" d="M122.732,188.355c-0.284-5.093-3.846-9.41-8.792-10.655l-19.347-4.884
					c-11.389,26.463-23.726,16.658-28.696,10.914c-0.371-0.429-0.533-0.934-0.544-1.434h-3.222c-0.011,0.5-0.173,1.005-0.544,1.434
					c-4.97,5.744-17.307,15.549-28.696-10.914l-19.347,4.884c-4.946,1.245-8.509,5.562-8.792,10.655L2.505,250.08
					c-0.104,1.857,1.375,3.42,3.235,3.42h17.997c1.21,0,2.191-0.981,2.191-2.191v-38.583l3.178,10.18
					c2.078,6.656,3.135,13.589,3.135,20.562v7.84c0,1.21,0.981,2.191,2.191,2.191h58.621c1.21,0,2.191-0.981,2.191-2.191v-7.84
					c0-6.973,1.057-13.906,3.135-20.562l3.178-10.18v38.583c0,1.21,0.981,2.191,2.191,2.191h17.997c1.86,0,3.339-1.563,3.235-3.42
					L122.732,188.355z"/>
			</g>
		</g>
		<g>
			<g>
				<path class="st8" d="M93.615,172.571c-1.698-0.428-3.347-1.034-4.918-1.808l-5.371-2.648
					c-3.676,4.305-9.411,9.738-16.296,11.874c-1.62,0.503-2.244,2.46-1.134,3.743c4.97,5.744,17.307,15.549,28.696-10.914
					L93.615,172.571z"/>
			</g>
		</g>
		<g>
			<g>
				<path class="st8" d="M60.453,179.988c-6.885-2.135-12.62-7.569-16.296-11.874l-5.371,2.648c-1.571,0.774-3.219,1.38-4.918,1.808
					l-0.977,0.247c11.389,26.463,23.726,16.658,28.696,10.914C62.696,182.448,62.073,180.49,60.453,179.988z"/>
			</g>
		</g>
		<g>
			<g>
				<path class="st23" d="M81.67,167.297c-2.699-1.331-4.408-4.079-4.408-7.088v-8.62c-4.027,2.195-8.635,3.444-13.521,3.444
					s-9.494-1.249-13.52-3.444v8.62c0,3.009-1.709,5.757-4.408,7.088l-1.657,0.817c3.677,4.305,9.411,9.738,16.296,11.874
					c1.078,0.335,1.7,1.314,1.678,2.309h3.222c-0.022-0.996,0.6-1.975,1.678-2.309c6.885-2.135,12.62-7.569,16.296-11.874
					L81.67,167.297z"/>
			</g>
		</g>
		<g>
			<g>
				<g>
					<path d="M65.128,179.797h-2.822c-1.381,0-2.5,1.119-2.5,2.5s1.119,2.5,2.5,2.5h2.822c1.381,0,2.5-1.119,2.5-2.5
						S66.509,179.797,65.128,179.797z"/>
				</g>
			</g>
			<g>
				<g>
					<path d="M127.477,249.989l-2.249-61.772c-0.347-6.219-4.638-11.419-10.677-12.939l-19.347-4.884
						c-1.339-0.334-2.698,0.473-3.036,1.812s0.473,2.698,1.812,3.036l19.349,4.884c3.907,0.983,6.682,4.347,6.904,8.321
						l2.249,61.772c0.016,0.277-0.12,0.463-0.201,0.55c-0.082,0.086-0.261,0.231-0.538,0.231h-17.688v-38.273
						c0-1.235-0.902-2.285-2.123-2.472c-1.218-0.185-2.396,0.547-2.763,1.727l-3.178,10.18c-2.156,6.904-3.249,14.073-3.249,21.307
						V251H34.741v-7.531c0-7.233-1.093-14.401-3.249-21.307l-3.178-10.18c-0.368-1.179-1.544-1.91-2.763-1.727
						c-1.221,0.187-2.123,1.236-2.123,2.472V251H5.741c-0.277,0-0.456-0.145-0.538-0.231c-0.082-0.087-0.217-0.273-0.199-0.598
						l2.244-61.676c0.224-4.022,3-7.386,6.908-8.37l19.347-4.884c1.339-0.338,2.15-1.697,1.812-3.036s-1.697-2.146-3.036-1.812
						l-19.346,4.883c-6.041,1.521-10.332,6.721-10.681,12.988L0.009,249.94c-0.087,1.568,0.481,3.123,1.561,4.264
						S4.17,256,5.741,256h17.997c2.586,0,4.691-2.104,4.691-4.691v-20.991c0.873,4.323,1.313,8.724,1.313,13.15v7.84
						c0,2.586,2.104,4.691,4.69,4.691h58.621c2.586,0,4.691-2.104,4.691-4.691v-7.84c0-4.428,0.44-8.829,1.313-13.151v20.992
						c0,2.586,2.104,4.691,4.69,4.691h17.997c1.571,0,3.091-0.655,4.17-1.796S127.562,251.509,127.477,249.989z"/>
				</g>
			</g>
		</g>
		<g>
			<g>
				<path class="st23" d="M93.991,104.944c-0.621,0-1.229,0.052-1.824,0.145v21.519c0,0.641-0.029,1.275-0.072,1.906
					c0.619,0.1,1.249,0.166,1.896,0.166c6.554,0,11.868-5.313,11.868-11.868C105.859,110.258,100.545,104.944,93.991,104.944z"/>
			</g>
		</g>
		<g>
			<g>
				<path class="st23" d="M90.418,101.478c-2.876-0.667-6.369-2.333-10.372-5.97c-0.792-0.719-2.013-0.66-2.709,0.152
					c-4.329,5.053-19.68,20.383-42.021,14.02v16.928c0,15.634,12.791,28.425,28.425,28.425c15.634,0,28.425-12.791,28.425-28.425
					v-22.965C92.167,102.599,91.436,101.714,90.418,101.478z"/>
			</g>
		</g>
		<g>
			<g>
				<path class="st23" d="M35.316,126.608V109.68c-1.952-0.556-3.956-1.275-6.012-2.183c-1.325-0.585-2.874-0.316-3.931,0.675
					c-2.306,2.162-3.749,5.229-3.749,8.64c0,6.554,5.313,11.868,11.868,11.868c0.647,0,1.277-0.066,1.896-0.166
					C35.346,127.883,35.316,127.249,35.316,126.608z"/>
			</g>
		</g>
		<g>
			<g>
				<path class="st4" d="M63.742,62.829c-21.259,0-38.653,17.394-38.653,38.653v6.985c0.097-0.097,0.185-0.201,0.285-0.295
					c1.057-0.991,2.605-1.261,3.931-0.675c2.056,0.908,4.06,1.627,6.012,2.183c22.341,6.364,37.692-8.967,42.021-14.02
					c0.696-0.812,1.917-0.872,2.708-0.152c4.003,3.637,7.496,5.303,10.372,5.97c1.017,0.236,1.748,1.121,1.748,2.165v1.446
					c0.595-0.092,1.203-0.145,1.824-0.145c3.284,0,6.255,1.334,8.404,3.489v-6.952C102.395,80.223,85.001,62.829,63.742,62.829z"/>
			</g>
		</g>
		<g>
			<g>
				<path d="M93.991,102.444c-0.454,0-0.903,0.022-1.346,0.064c-1.375,0.13-2.383,1.35-2.253,2.725
					c0.13,1.375,1.356,2.389,2.725,2.253c0.288-0.027,0.58-0.042,0.875-0.042c5.166,0,9.368,4.202,9.368,9.368
					s-4.202,9.368-9.368,9.368c-0.29,0-0.576-0.018-0.858-0.047c-1.37-0.138-2.603,0.853-2.747,2.226
					c-0.144,1.373,0.853,2.603,2.226,2.747c0.479,0.05,0.93,0.075,1.379,0.075c7.922,0,14.368-6.445,14.368-14.368
					S101.913,102.444,93.991,102.444z"/>
			</g>
		</g>
		<g>
			<g>
				<path d="M74.013,134.089c-1.058-0.889-2.635-0.749-3.521,0.31c-1.387,1.654-3.756,2.642-6.337,2.642s-4.949-0.988-6.336-2.642
					c-0.886-1.058-2.462-1.198-3.521-0.31c-1.058,0.887-1.197,2.464-0.31,3.521c2.325,2.774,6.126,4.43,10.167,4.43
					c4.042,0,7.843-1.656,10.168-4.43C75.21,136.553,75.071,134.976,74.013,134.089z"/>
			</g>
		</g>
		<g>
			<g>
				<g>
					<path d="M90.983,99.042c-2.965-0.687-6.079-2.499-9.256-5.385c-0.881-0.8-2.063-1.217-3.244-1.142
						c-1.188,0.074-2.269,0.614-3.044,1.518c-3.955,4.616-18.485,19.21-39.438,13.242c-0.755-0.215-1.565-0.063-2.191,0.409
						c-0.626,0.472-0.994,1.211-0.994,1.995v16.928c0,17.052,13.873,30.925,30.925,30.925s30.925-13.873,30.925-30.925v-22.965
						C94.667,101.438,93.152,99.545,90.983,99.042z M89.667,126.608c0,14.295-11.63,25.925-25.925,25.925
						s-25.925-11.63-25.925-25.925v-13.743c21.414,4.404,36.254-9.724,41.003-15.1c3.606,3.179,7.252,5.23,10.847,6.104V126.608z"/>
				</g>
			</g>
		</g>
		<g>
			<g>
				<path d="M28.294,109.784c2.072,0.915,4.176,1.681,6.254,2.277c1.33,0.382,2.712-0.387,3.093-1.714
					c0.38-1.328-0.387-2.712-1.714-3.093c-1.86-0.533-3.749-1.221-5.613-2.044c-2.244-0.991-4.855-0.545-6.651,1.138
					c-2.885,2.705-4.539,6.519-4.539,10.464c0,7.922,6.445,14.368,14.368,14.368c0.4,0,0.795-0.02,1.186-0.056
					c1.375-0.125,2.388-1.342,2.263-2.717c-0.125-1.375-1.345-2.383-2.717-2.263c-0.241,0.022-0.484,0.035-0.731,0.035
					c-5.166,0-9.368-4.202-9.368-9.368c0-2.607,1.051-5.027,2.959-6.816C27.413,109.687,27.888,109.603,28.294,109.784z"/>
			</g>
		</g>
		<g>
			<g>
				<path d="M63.742,60.329c-22.692,0-41.153,18.461-41.153,41.153v6.83c0,1.381,1.119,2.5,2.5,2.5s2.5-1.119,2.5-2.5v-6.83
					c0-19.935,16.218-36.153,36.153-36.153c19.935,0,36.153,16.218,36.153,36.153v6.226c0,1.381,1.119,2.5,2.5,2.5
					s2.5-1.119,2.5-2.5v-6.226C104.895,78.79,86.434,60.329,63.742,60.329z"/>
			</g>
		</g>
		<g>
			<g>
				<path d="M104.543,158.208c-3.104-5.073-4.936-8.358-3.554-11.812c2.812-7.029,3.713-13.662,2.679-19.712
					c-0.233-1.36-1.521-2.275-2.886-2.043c-1.361,0.233-2.275,1.525-2.043,2.886c0.877,5.128,0.072,10.852-2.393,17.012
					c-2.382,5.957,0.828,11.204,3.932,16.278c2.764,4.518,5.622,9.189,5.207,14.809c-0.102,1.377,0.932,2.576,2.309,2.677
					c0.063,0.005,0.125,0.007,0.187,0.007c1.297,0,2.394-1.001,2.491-2.316C111.005,168.771,107.572,163.159,104.543,158.208z"/>
			</g>
		</g>
		<g>
			<g>
				<path d="M31.137,144.54c-2.461-6.153-3.268-11.871-2.396-16.995c0.232-1.361-0.684-2.652-2.045-2.884
					c-1.364-0.234-2.653,0.684-2.884,2.045c-1.028,6.045-0.125,12.67,2.683,19.691c1.381,3.454-0.451,6.738-3.555,11.812
					c-2.946,4.815-6.285,10.273-5.961,17.241c0.062,1.339,1.167,2.384,2.495,2.384c0.039,0,0.079-0.001,0.118-0.003
					c1.379-0.064,2.445-1.234,2.381-2.613c-0.252-5.435,2.536-9.992,5.232-14.399C30.31,155.743,33.52,150.496,31.137,144.54z"/>
			</g>
		</g>
		<g>
			<g>
				<g>
					<path d="M96.834,171.71c-0.324-0.656-0.92-1.138-1.63-1.317l-0.978-0.247c0,0-0.001,0-0.001,0
						c-1.524-0.384-3.012-0.931-4.422-1.626l-5.371-2.648c-1.026-0.507-2.264-0.252-3.006,0.619
						c-3.4,3.981-8.787,9.14-15.136,11.109c-1.592,0.494-2.813,1.737-3.268,3.326c-0.444,1.555-0.077,3.215,0.984,4.44
						c4.223,4.88,8.988,7.485,13.604,7.485c0.62,0,1.238-0.047,1.851-0.142c6.605-1.021,12.469-7.382,17.428-18.904
						C97.178,173.132,97.158,172.367,96.834,171.71z M78.696,187.769c-4.467,0.69-8.565-3.022-10.72-5.458
						c6.607-2.112,12.147-6.938,15.959-11.109l3.656,1.803c1.136,0.56,2.313,1.042,3.518,1.439
						C87.241,182.517,82.977,187.106,78.696,187.769z"/>
				</g>
			</g>
		</g>
		<g>
			<g>
				<g>
					<path d="M64.461,180.926c-0.454-1.589-1.676-2.833-3.268-3.326c-6.35-1.969-11.736-7.128-15.136-11.109
						c-0.743-0.87-1.981-1.125-3.006-0.619l-5.372,2.648c-1.409,0.695-2.897,1.242-4.423,1.626l-0.977,0.247
						c-0.71,0.179-1.306,0.661-1.63,1.317c-0.324,0.657-0.344,1.422-0.055,2.095c4.959,11.522,10.823,17.883,17.429,18.904
						c0.613,0.095,1.23,0.142,1.85,0.142c4.615,0,9.381-2.605,13.604-7.485C64.538,184.141,64.905,182.481,64.461,180.926z
						 M48.788,187.769c-4.281-0.662-8.545-5.251-12.414-13.325c1.205-0.397,2.382-0.879,3.517-1.439l3.657-1.803
						c3.811,4.171,9.35,8.996,15.958,11.109C57.353,184.747,53.258,188.46,48.788,187.769z"/>
				</g>
			</g>
		</g>
		<g>
			<g>
				<path d="M50.221,150.042c-1.381,0-2.5,1.119-2.5,2.5v7.667c0,2.072-1.155,3.929-3.013,4.846l-1.657,0.817
					c-1.238,0.61-1.748,2.109-1.137,3.348c0.435,0.883,1.322,1.395,2.244,1.395c0.371,0,0.748-0.083,1.104-0.258l1.657-0.817
					c3.579-1.765,5.802-5.34,5.802-9.33v-7.667C52.721,151.162,51.602,150.042,50.221,150.042z"/>
			</g>
		</g>
		<g>
			<g>
				<path d="M84.432,165.872l-1.656-0.817c-1.859-0.917-3.014-2.773-3.014-4.846v-7.834c0-1.381-1.119-2.5-2.5-2.5
					s-2.5,1.119-2.5,2.5v7.834c0,3.99,2.223,7.565,5.802,9.33l1.657,0.817c0.355,0.175,0.732,0.258,1.104,0.258
					c0.922,0,1.809-0.512,2.244-1.395C86.18,167.981,85.67,166.482,84.432,165.872z"/>
			</g>
		</g>
		<g>
			<g>
				<path class="st11" d="M219.478,99.936c-0.017-0.856-0.702-1.561-1.558-1.586c-12.534-0.367-19.139-5.335-21.676-7.823
					c-0.693-0.679-1.811-0.607-2.415,0.152c-11.02,13.859-27.277,11.903-32.743,10.759c-0.993-0.208-1.946,0.541-1.947,1.556v24.291
					c0,16.595,13.577,30.172,30.172,30.172h0c16.595,0,30.172-13.577,30.172-30.172v-26.877
					C219.482,100.25,219.481,100.093,219.478,99.936z"/>
			</g>
		</g>
		<g>
			<g>
				<path class="st12" d="M212.921,67.932c-3.215,0-6.221,0.908-8.804,2.458c-3.017-5.036-8.514-8.436-14.78-8.436h-8.85
					c-17.129,0-31.144,14.015-31.144,31.144v13.955c2.155-1.725,4.885-2.762,7.86-2.762c0.659,0,1.305,0.056,1.936,0.154v-1.45
					c0.001-1.015,0.954-1.763,1.947-1.556c5.466,1.144,21.723,3.1,32.743-10.759c0.604-0.759,1.722-0.831,2.415-0.152
					c2.538,2.488,9.142,7.455,21.676,7.823c0.855,0.025,1.541,0.73,1.558,1.586c0.003,0.157,0.005,0.314,0.005,0.472v4.036
					c0.632-0.098,1.277-0.154,1.936-0.154c3.396,0,6.472,1.35,8.737,3.535V85.167C230.156,75.688,222.4,67.932,212.921,67.932z"/>
			</g>
		</g>
		<g>
			<g>
				<path class="st11" d="M221.419,104.29c-0.659,0-1.305,0.055-1.936,0.154v22.842c0,0.68-0.031,1.354-0.076,2.023
					c0.657,0.106,1.326,0.176,2.012,0.176c6.957,0,12.597-5.64,12.597-12.597C234.016,109.93,228.376,104.29,221.419,104.29z"/>
			</g>
		</g>
		<g>
			<g>
				<path class="st11" d="M159.138,127.285v-22.842c-0.632-0.098-1.277-0.154-1.936-0.154c-6.957,0-12.597,5.64-12.597,12.597
					c0,6.957,5.64,12.597,12.597,12.597c0.687,0,1.355-0.07,2.012-0.176v0C159.169,128.639,159.138,127.966,159.138,127.285z"/>
			</g>
		</g>
		<g>
			<g>
				<path class="st7" d="M250.159,189.158c-0.29-5.203-3.929-9.612-8.982-10.884l-23.432-5.898l-8.282-4.083
					c-3.56-1.755-5.814-5.38-5.814-9.349v-5.136c-4.271,2.326-9.158,3.649-14.339,3.649h0c-4.831,0-9.402-1.157-13.461-3.198v4.685
					c0,3.969-2.254,7.593-5.814,9.349l-8.282,4.083l-23.432,5.898c-5.053,1.272-8.692,5.682-8.982,10.884l-3.336,60.848
					c-0.106,1.897,1.404,3.494,3.305,3.494H250.19c1.9,0,3.411-1.597,3.305-3.494L250.159,189.158z"/>
			</g>
		</g>
		<g>
			<g>
				<path class="st11" d="M209.463,168.293c-3.56-1.755-5.814-5.38-5.814-9.349v-5.136c-4.271,2.326-9.158,3.649-14.339,3.649h0
					c-4.831,0-9.402-1.157-13.461-3.198v4.685c0,3.969-2.254,7.593-5.814,9.349l-1.301,0.641
					c3.93,7.626,11.887,12.875,21.015,12.875c9.128,0,17.084-5.25,21.015-12.875L209.463,168.293z"/>
			</g>
		</g>
		<g>
			<g>
				<g>
					<path d="M221.978,99.888c-0.043-2.199-1.793-3.972-3.984-4.037c-11.859-0.347-17.938-5.087-19.999-7.108
						c-0.834-0.818-1.987-1.248-3.143-1.174c-1.165,0.072-2.251,0.639-2.979,1.555c-9.97,12.539-24.493,11.078-30.274,9.869
						c-1.224-0.257-2.479,0.049-3.446,0.835c-0.96,0.779-1.512,1.933-1.513,3.188v24.271c0,18.016,14.656,32.672,32.672,32.672
						s32.672-14.657,32.672-32.672v-26.877L221.978,99.888z M216.982,127.285c0,15.259-12.413,27.672-27.672,27.672
						s-27.672-12.414-27.672-27.672V104.09c6.164,1.091,22.259,2.327,33.551-11.125c3.318,2.982,10.096,7.313,21.793,7.851V127.285z
						"/>
				</g>
			</g>
		</g>
		<g>
			<g>
				<path d="M212.921,65.432c-2.75,0-5.475,0.59-7.995,1.72c-3.721-4.798-9.504-7.698-15.59-7.698h-8.85
					c-18.551,0-33.644,15.092-33.644,33.644v13.465c0,1.381,1.119,2.5,2.5,2.5s2.5-1.119,2.5-2.5V93.098
					c0-15.794,12.85-28.644,28.644-28.644h8.85c5.125,0,9.967,2.767,12.636,7.221c0.341,0.569,0.894,0.979,1.537,1.14
					c0.642,0.16,1.324,0.06,1.893-0.281c2.294-1.375,4.894-2.102,7.52-2.102c8.125,0,14.734,6.61,14.734,14.735v21.896
					c0,1.381,1.119,2.5,2.5,2.5s2.5-1.119,2.5-2.5V85.167C232.655,74.285,223.803,65.432,212.921,65.432z"/>
			</g>
		</g>
		<g>
			<g>
				<path d="M231.539,200.973c-1.381,0-2.5,1.119-2.5,2.5v49.248c0,1.381,1.119,2.5,2.5,2.5s2.5-1.119,2.5-2.5v-49.248
					C234.039,202.092,232.92,200.973,231.539,200.973z"/>
			</g>
		</g>
		<g>
			<g>
				<path d="M147.959,200.973c-1.381,0-2.5,1.119-2.5,2.5v49.248c0,1.381,1.119,2.5,2.5,2.5s2.5-1.119,2.5-2.5v-49.248
					C150.459,202.092,149.34,200.973,147.959,200.973z"/>
			</g>
		</g>
		<g>
			<g>
				<path d="M221.419,101.791c-0.392,0-0.778,0.016-1.161,0.046c-1.376,0.111-2.402,1.316-2.292,2.692
					c0.111,1.376,1.314,2.403,2.692,2.292c0.25-0.021,0.504-0.031,0.761-0.031c5.567,0,10.097,4.529,10.097,10.097
					s-4.529,10.097-10.097,10.097c-0.302,0-0.598-0.018-0.891-0.047c-1.38-0.143-2.6,0.862-2.739,2.235
					c-0.139,1.374,0.861,2.6,2.235,2.739c0.483,0.049,0.939,0.073,1.395,0.073c8.324,0,15.097-6.772,15.097-15.097
					C236.516,108.563,229.743,101.791,221.419,101.791z"/>
			</g>
		</g>
		<g>
			<g>
				<path d="M157.992,126.946c-0.261,0.024-0.524,0.038-0.79,0.038c-5.567,0-10.097-4.53-10.097-10.097s4.529-10.097,10.097-10.097
					c0.331,0,0.658,0.018,0.98,0.05c1.367,0.136,2.599-0.864,2.736-2.238c0.138-1.374-0.864-2.599-2.238-2.737
					c-9-0.901-16.575,6.212-16.575,15.021c0,8.325,6.772,15.097,15.097,15.097c0.42,0,0.834-0.021,1.245-0.059
					c1.375-0.126,2.388-1.343,2.262-2.718C160.584,127.833,159.366,126.831,157.992,126.946z"/>
			</g>
		</g>
		<g>
			<g>
				<path d="M255.99,249.869l-3.336-60.85c-0.352-6.33-4.719-11.622-10.867-13.17l-23.175-5.833l-8.044-3.966
					c-2.726-1.344-4.419-4.067-4.419-7.106v-4.319c0-1.381-1.119-2.5-2.5-2.5s-2.5,1.119-2.5,2.5v4.319
					c0,4.958,2.762,9.399,7.208,11.591l8.282,4.083c0.158,0.078,0.324,0.139,0.495,0.182l23.432,5.898
					c4.015,1.011,6.866,4.466,7.096,8.597l3.336,60.851c0.017,0.302-0.131,0.506-0.22,0.601c-0.09,0.095-0.285,0.253-0.589,0.253
					H129.309c-0.304,0-0.499-0.159-0.588-0.253c-0.09-0.095-0.237-0.299-0.221-0.604l3.336-60.846
					c0.229-4.132,3.081-7.588,7.096-8.599l23.432-5.898c0.171-0.043,0.337-0.104,0.495-0.182l8.282-4.083
					c4.446-2.192,7.208-6.633,7.208-11.591v-3.975c0-1.381-1.119-2.5-2.5-2.5s-2.5,1.119-2.5,2.5v3.975
					c0,3.04-1.693,5.763-4.419,7.106l-8.044,3.966l-23.175,5.833c-6.148,1.548-10.516,6.84-10.867,13.172l-3.336,60.846
					c-0.088,1.587,0.488,3.16,1.581,4.315c1.092,1.155,2.631,1.817,4.221,1.817h120.881c1.591,0,3.129-0.663,4.222-1.818
					C255.504,253.026,256.079,251.453,255.99,249.869z"/>
			</g>
		</g>
		<g>
			<g>
				<path d="M211.63,167.397c-1.206-0.669-2.729-0.236-3.399,0.972c-3.748,6.749-10.829,10.94-18.481,10.94
					c-7.622,0-14.69-4.168-18.446-10.878c-0.675-1.206-2.202-1.634-3.402-0.96c-1.205,0.674-1.635,2.198-0.961,3.403
					c4.639,8.287,13.379,13.436,22.81,13.436c9.467,0,18.224-5.178,22.853-13.513C213.271,169.59,212.837,168.068,211.63,167.397z"
					/>
			</g>
		</g>
		<g>
			<g>
				<path d="M199.887,134.184c-1.058-0.887-2.635-0.748-3.521,0.311c-1.402,1.674-3.799,2.673-6.41,2.673s-5.008-1-6.411-2.674
					c-0.89-1.059-2.464-1.198-3.522-0.31c-1.058,0.887-1.196,2.464-0.31,3.522c2.342,2.794,6.171,4.462,10.243,4.462
					s7.901-1.668,10.242-4.462C201.084,136.647,200.945,135.07,199.887,134.184z"/>
			</g>
		</g>
		<g>
			<g>
				<path class="st1" d="M164.07,32.408c-2.273-2.117-5.853-1.955-8.049,0.242h0c-0.212,0.212-0.557,0.212-0.769,0
					c-2.197-2.197-5.776-2.36-8.049-0.242c-2.387,2.223-2.437,5.961-0.15,8.248l7.401,7.401c0.654,0.654,1.714,0.654,2.368,0
					l7.401-7.401C166.507,38.369,166.457,34.631,164.07,32.408z"/>
			</g>
		</g>
		<g>
			<g>
				<g>
					<path d="M165.774,30.578c-2.819-2.625-6.989-2.879-10.14-0.821c-3.147-2.055-7.317-1.805-10.138,0.821
						c-1.651,1.538-2.583,3.625-2.623,5.878c-0.04,2.254,0.815,4.373,2.409,5.967l7.4,7.399c0.788,0.789,1.837,1.223,2.952,1.223
						s2.164-0.434,2.951-1.222l7.401-7.401c1.594-1.594,2.449-3.713,2.409-5.967C168.357,34.204,167.426,32.116,165.774,30.578z
						 M162.453,38.888l-6.817,6.816l-6.817-6.816c-0.625-0.625-0.961-1.458-0.945-2.342c0.016-0.884,0.383-1.704,1.032-2.309
						c0.594-0.553,1.366-0.827,2.149-0.827c0.874,0,1.761,0.339,2.431,1.009c1.187,1.184,3.116,1.183,4.303-0.002
						c1.271-1.27,3.324-1.35,4.578-0.18c0.649,0.604,1.017,1.425,1.032,2.309C163.414,37.431,163.078,38.263,162.453,38.888z"/>
				</g>
			</g>
		</g>
		<g>
			<g>
				<path class="st1" d="M132.208,14.949c-1.822-1.697-4.69-1.566-6.45,0.194c-0.17,0.17-0.446,0.17-0.617,0
					c-1.76-1.76-4.628-1.891-6.45-0.194c-1.913,1.781-1.953,4.777-0.12,6.609l5.93,5.93c0.524,0.524,1.373,0.524,1.897,0l5.93-5.93
					C134.16,19.726,134.12,16.73,132.208,14.949z"/>
			</g>
		</g>
		<g>
			<g>
				<g>
					<path d="M133.912,13.12C133.912,13.119,133.912,13.119,133.912,13.12c-2.351-2.189-5.788-2.465-8.463-0.88
						c-2.674-1.586-6.112-1.308-8.462,0.879c-1.423,1.325-2.226,3.125-2.26,5.066c-0.035,1.942,0.703,3.767,2.075,5.14l5.931,5.931
						c0.749,0.749,1.732,1.124,2.716,1.124s1.968-0.375,2.717-1.124l5.93-5.931c1.373-1.373,2.11-3.198,2.076-5.14
						C136.138,16.244,135.335,14.445,133.912,13.12z M130.561,19.79l-5.111,5.111l-5.111-5.111
						c-0.405-0.405-0.622-0.943-0.612-1.516c0.01-0.572,0.248-1.104,0.669-1.496c0.381-0.355,0.878-0.531,1.385-0.531
						c0.571,0,1.153,0.223,1.594,0.663c1.108,1.109,3.043,1.109,4.151,0c0.829-0.83,2.167-0.89,2.979-0.133
						c0.421,0.392,0.658,0.923,0.669,1.495C131.183,18.847,130.965,19.385,130.561,19.79z"/>
				</g>
			</g>
		</g>
		<g>
			<g>
				<path class="st1" d="M136.665,50.23c-4.606-4.289-11.856-3.96-16.307,0.491h0c-0.43,0.43-1.128,0.43-1.559,0
					c-4.45-4.45-11.701-4.78-16.307-0.491c-4.835,4.503-4.937,12.076-0.305,16.708l14.993,14.993c1.324,1.324,3.472,1.324,4.796,0
					l14.993-14.993C141.602,62.306,141.501,54.733,136.665,50.23z"/>
			</g>
		</g>
		<g>
			<g>
				<g>
					<path d="M138.369,48.4c-5.166-4.813-13.331-4.875-18.79-0.348c-5.458-4.527-13.623-4.463-18.79,0.348
						c-2.832,2.638-4.429,6.217-4.498,10.078c-0.069,3.864,1.397,7.496,4.129,10.228l14.993,14.992
						c1.113,1.113,2.592,1.726,4.166,1.726c1.574,0,3.053-0.613,4.166-1.726l14.992-14.992c2.732-2.732,4.199-6.364,4.13-10.228
						C142.799,54.617,141.201,51.038,138.369,48.4z M135.202,65.171L120.21,80.163c-0.349,0.348-0.915,0.347-1.261,0l-14.992-14.992
						c-1.764-1.764-2.71-4.109-2.666-6.603c0.044-2.493,1.077-4.804,2.907-6.508c1.69-1.575,3.885-2.354,6.103-2.354
						c2.429,0,4.884,0.935,6.732,2.782c1.36,1.361,3.733,1.36,5.094,0c3.535-3.536,9.292-3.728,12.834-0.428
						c1.831,1.704,2.863,4.016,2.907,6.508C137.913,61.062,136.966,63.407,135.202,65.171z"/>
				</g>
			</g>
		</g>
		<g>
			<g>
				<path d="M202.381,114.06c-2.192,0-3.97,1.777-3.97,3.97c0,2.192,1.777,3.97,3.97,3.97s3.97-1.777,3.97-3.97
					C206.351,115.838,204.574,114.06,202.381,114.06z"/>
			</g>
		</g>
		<g>
			<g>
				<path d="M177.619,114.06c-2.192,0-3.97,1.777-3.97,3.97c0,2.192,1.777,3.97,3.97,3.97s3.97-1.777,3.97-3.97
					C181.589,115.838,179.811,114.06,177.619,114.06z"/>
			</g>
		</g>
		<g>
			<g>
				<path d="M76.381,116.06c-2.192,0-3.97,1.777-3.97,3.97c0,2.192,1.777,3.97,3.97,3.97s3.97-1.777,3.97-3.97
					C80.351,117.838,78.574,116.06,76.381,116.06z"/>
			</g>
		</g>
		<g>
			<g>
				<path d="M51.619,116.06c-2.192,0-3.97,1.777-3.97,3.97c0,2.192,1.777,3.97,3.97,3.97s3.97-1.777,3.97-3.97
					C55.589,117.838,53.811,116.06,51.619,116.06z"/>
			</g>
		</g>
		<g>
			<g>
				<path class="st5" d="M94.983,18.697c-4.498-0.838-8.043-4.31-8.898-8.717c-0.043-0.221-0.352-0.221-0.395,0
					c-0.855,4.406-4.4,7.879-8.898,8.717c-0.226,0.042-0.226,0.345,0,0.387c4.498,0.838,8.043,4.31,8.898,8.717
					c0.043,0.221,0.352,0.221,0.395,0c0.855-4.406,4.4-7.879,8.898-8.717C95.209,19.042,95.209,18.739,94.983,18.697z"/>
			</g>
		</g>
		<g>
			<g>
				<path class="st1" d="M21.05,82.774c-2.707-0.504-4.841-2.594-5.355-5.246c-0.026-0.133-0.212-0.133-0.238,0
					c-0.515,2.652-2.648,4.742-5.355,5.246c-0.136,0.025-0.136,0.208,0,0.233c2.707,0.504,4.841,2.594,5.355,5.246
					c0.026,0.133,0.212,0.133,0.238,0c0.515-2.652,2.648-4.742,5.355-5.246C21.186,82.982,21.186,82.8,21.05,82.774z"/>
			</g>
		</g>
		<g>
			<g>
				<path class="st6" d="M239.694,151.302h-2.329v-2.33c0-1.744-1.413-3.157-3.157-3.157c-1.744,0-3.157,1.413-3.157,3.157v2.33
					h-2.33c-1.744,0-3.157,1.413-3.157,3.157c0,1.744,1.413,3.157,3.157,3.157h2.33v2.33c0,1.744,1.413,3.157,3.157,3.157
					c1.744,0,3.157-1.414,3.157-3.157v-2.33h2.329c1.744,0,3.157-1.413,3.157-3.157
					C242.851,152.715,241.438,151.302,239.694,151.302z"/>
			</g>
		</g>
		<g>
			<g>
				<path class="st5" d="M246.623,127.06c-1.865,0-3.377,1.512-3.377,3.377s1.512,3.377,3.377,3.377s3.377-1.512,3.377-3.377
					S248.488,127.06,246.623,127.06z"/>
			</g>
		</g>
		<g>
			<g>
				<circle class="st7" cx="105.999" cy="3.377" r="3.377"/>
			</g>
		</g>
	</g>
</g>
<g id="Layer_44">
</g>
<g id="Layer_45">
</g>
<g id="Layer_46">
</g>
<g id="Layer_47">
</g>
<g id="Layer_48">
</g>
<g id="Layer_49">
</g>
<g id="Layer_50">
</g>
<g id="Layer_51">
</g>
<g id="Layer_52">
</g>
<g id="Layer_53">
</g>
<g id="Layer_54">
</g>
<g id="Layer_55">
</g>
<g id="Layer_56">
</g>
<g id="Layer_57">
</g>
<g id="Layer_58">
</g>
<g id="Layer_59">
</g>
<g id="Layer_60">
</g>
<g id="Layer_61">
</g>
<g id="Layer_62">
</g>
<g id="Layer_63">
</g>
<g id="Layer_64">
</g>
<g id="Layer_65">
</g>
<g id="Layer_66">
</g>
<g id="Layer_67">
</g>
<g id="Layer_68">
</g>
<g id="Layer_69">
</g>
<g id="Layer_70">
</g>
<g id="Layer_71">
</g>
<g id="Layer_72">
</g>
<g id="Layer_73">
</g>
<g id="Layer_74">
</g>
<g id="Layer_75">
</g>
<g id="Layer_76">
</g>
<g id="Layer_77">
</g>
<g id="Layer_78">
</g>
<g id="Layer_79">
</g>
<g id="Layer_80">
</g>
<g id="Layer_81">
</g>
<g id="Layer_82">
</g>
<g id="Layer_83">
</g>
<g id="Layer_84">
</g>
<g id="Layer_85">
</g>
</svg>
