<?xml version="1.0" encoding="utf-8"?>
<!-- Generator: Adobe Illustrator 16.0.0, SVG Export Plug-In . SVG Version: 6.00 Build 0)  -->
<!DOCTYPE svg PUBLIC "-//W3C//DTD SVG 1.1//EN" "http://www.w3.org/Graphics/SVG/1.1/DTD/svg11.dtd">
<svg version="1.1" id="Layer_1" xmlns="http://www.w3.org/2000/svg" xmlns:xlink="http://www.w3.org/1999/xlink" x="0px" y="0px"
	 width="64px" height="64px" viewBox="0 0 64 64" enable-background="new 0 0 64 64" xml:space="preserve">
<g>
	<polygon fill-rule="evenodd" clip-rule="evenodd" fill="#EBBF30" points="27,4.998 22,4.998 25,13 30,13 27,4.998 	"/>
	<polygon fill-rule="evenodd" clip-rule="evenodd" fill="#D1A92A" points="37.002,4.998 42,4.998 39,13 34.002,13 37.002,4.998 	"/>
	<polygon fill-rule="evenodd" clip-rule="evenodd" fill="#D8E7EE" points="37.99,0 40,2.998 32,15.988 24.012,2.998 26.012,0 
		37.99,0 	"/>
	<path fill-rule="evenodd" clip-rule="evenodd" fill="#C5D6E0" d="M36.547,5.998l0.455-1l1.004-4.977l3.984,4.977l-0.908,1H36.547
		L36.547,5.998z M22.92,5.998l-0.908-1l3.982-4.975L27,4.998l0.455,1H22.92L22.92,5.998z"/>
	<path fill-rule="evenodd" clip-rule="evenodd" fill="#ABC0CE" d="M31.99,15.978l-9.979-10.98H27L31.99,15.978L31.99,15.978z
		 M41.99,4.998l-9.979,10.98l4.99-10.98H41.99L41.99,4.998z"/>
	<polygon fill-rule="evenodd" clip-rule="evenodd" fill="#FFFFFF" points="27,4.998 32,0 37.002,4.998 27,4.998 	"/>
	<path fill-rule="evenodd" clip-rule="evenodd" fill="#EBBF30" d="M32.5,57.973c-0.168,0.004-0.331,0.025-0.5,0.025
		c-11.045,0-20-8.953-20-19.998c0-11.045,8.955-20,20-20c0.169,0,0.332,0.021,0.5,0.025V13H28l-0.398-0.6
		C15.342,14.496,6,25.142,6,38c0,14.359,11.641,26,26,26c0.168,0,0.333-0.01,0.5-0.014V57.973z"/>
	<path fill-rule="evenodd" clip-rule="evenodd" fill="#D1A92A" d="M32,64v-6.002c11.047,0,20.002-8.953,20.002-19.998
		c0-11.045-8.955-20-20.002-20v-5h4.002l0.398-0.6C48.658,14.496,58,25.142,58,38C58,52.359,46.359,64,32,64L32,64z"/>
</g>
</svg>
