<?xml version="1.0" encoding="UTF-8"?>
<!DOCTYPE svg PUBLIC "-//W3C//DTD SVG 1.1//EN" "http://www.w3.org/Graphics/SVG/1.1/DTD/svg11.dtd">
<!-- Creator: CorelDRAW -->
<svg xmlns="http://www.w3.org/2000/svg" xml:space="preserve" width="6.82666in" height="6.82666in" style="shape-rendering:geometricPrecision; text-rendering:geometricPrecision; image-rendering:optimizeQuality; fill-rule:evenodd; clip-rule:evenodd"
viewBox="0 0 6.82666 6.82666"
 xmlns:xlink="http://www.w3.org/1999/xlink"
 version="1.1">
 <defs>
  <style type="text/css">
   <![CDATA[
    .fil9 {fill:none}
    .fil6 {fill:#931A2B}
    .fil4 {fill:#A11D2B}
    .fil5 {fill:#A7A9AC}
    .fil2 {fill:#AD1F2C}
    .fil3 {fill:#BE1E2D}
    .fil8 {fill:#CACFD1}
    .fil1 {fill:#D1D3D4}
    .fil0 {fill:#DDDDDD}
    .fil7 {fill:#DDE3E7}
   ]]>
  </style>
 </defs>
 <g id="Layer_x0020_1">
  <metadata id="CorelCorpID_0Corel-Layer"/>
  <g id="_743411112">
   <g id="Guides">
   </g>
   <g id="Layer_2">
   </g>
   <g id="Layer_3">
   </g>
   <g id="Layer_4">
   </g>
   <g id="Layer_5">
   </g>
   <g id="Layer_6">
   </g>
   <g id="Layer_7">
   </g>
   <g id="Layer_8">
   </g>
   <g id="Layer_9">
   </g>
   <g id="Layer_10">
   </g>
   <g id="Layer_11">
   </g>
   <g id="Layer_12">
   </g>
   <g id="Layer_13">
   </g>
   <g id="Layer_14">
   </g>
   <g id="Layer_15">
   </g>
   <g id="Layer_16">
   </g>
   <g id="Layer_17">
   </g>
   <g id="Layer_18">
   </g>
   <g id="Layer_19">
   </g>
   <g id="Layer_20">
   </g>
   <g id="Layer_21">
   </g>
   <g id="Layer_22">
   </g>
   <g id="Layer_23">
    <g>
     <g>
      <g>
       <g>
        <g>
         <g>
          <path id="_743416200" class="fil0" d="M3.78058 3.28619l1.35743 -1.36923 0.264201 -0.145 0.000732283 -0.000397638 0.452665 -0.517402 -0.282799 -0.285232 -0.513031 0.456598 -0.000334646 0.000700787 -0.143799 0.266465 -1.35837 1.3702 0.223268 0.223299m3.14961e-005 0z"/>
         </g>
        </g>
       </g>
      </g>
      <g>
       <g>
        <g>
         <g>
          <path id="_743415336" class="fil1" d="M5.71585 1.11319l0.139732 0.140969 -0.452634 0.517433 -0.000732283 0.000401575 -0.264201 0.145031 -1.35746 1.36923 -0.118433 -0.118433c3.14961e-005,-3.54331e-005 2.05493,-2.05583 2.05373,-2.05463z"/>
         </g>
        </g>
       </g>
      </g>
      <g>
       <g>
        <g>
         <g>
          <rect id="_743415096" class="fil2" transform="matrix(0.707107 0.707107 -0.707107 0.707107 3.1342 3.24636)" width="0.63539" height="0.425224"/>
         </g>
        </g>
       </g>
      </g>
      <g>
       <g>
        <g>
         <g>
          <rect id="_743414640" class="fil3" transform="matrix(0.707107 0.707107 -0.707107 0.707107 2.71258 3.42609)" width="0.97752" height="2.5033"/>
         </g>
        </g>
       </g>
      </g>
      <g>
       <g>
        <g>
         <g>
          <rect id="_743414328" class="fil3" transform="matrix(0.707107 0.707107 -0.707107 0.707107 3.31652 2.8221)" width="0.97752" height="0.428894"/>
         </g>
        </g>
       </g>
      </g>
      <g>
       <g>
        <g>
         <g>
          <rect id="_743414592" class="fil2" transform="matrix(0.707107 0.707107 -0.707107 0.707107 3.05821 3.77169)" width="0.48876" height="2.5033"/>
         </g>
        </g>
       </g>
      </g>
      <g>
       <g>
        <g>
         <g>
          <rect id="_743413464" class="fil4" transform="matrix(0.707107 0.707107 -0.707107 0.707107 3.35886 3.47099)" width="0.317697" height="0.425224"/>
         </g>
        </g>
       </g>
      </g>
      <g>
       <g>
        <g>
         <g>
          <rect id="_743413344" class="fil2" transform="matrix(0.707107 0.707107 -0.707107 0.707107 3.66214 3.16771)" width="0.48876" height="0.428894"/>
         </g>
        </g>
       </g>
      </g>
      <g>
       <g>
        <g>
         <g>
          <path id="_743412984" class="fil5" d="M3.66215 3.16775l0 0 0.118402 0.118433m-0.118402 -0.118433z"/>
         </g>
        </g>
       </g>
      </g>
      <g>
       <g>
        <g>
         <g>
          <rect id="_743412864" class="fil4" transform="matrix(0.707107 0.707107 -0.707107 0.707107 2.79265 3.92203)" width="0.162929" height="1.93961"/>
         </g>
        </g>
       </g>
      </g>
      <g>
       <g>
        <g>
         <g>
          <rect id="_743413224" class="fil6" transform="matrix(0.707107 0.707107 -0.707107 0.707107 2.85025 3.97963)" width="0.0814646" height="1.93961"/>
         </g>
        </g>
       </g>
      </g>
     </g>
     <g>
      <g>
       <g>
        <g>
         <g>
          <path id="_743412480" class="fil7" d="M4.73271 4.21738l-2.12366 -2.12309c0.111,-0.305098 0.0441654,-0.660268 -0.200598,-0.904965 -0.237567,-0.2375 -0.579201,-0.307465 -0.878134,-0.209933l0.360598 0.360531c0.130165,0.130134 0.130165,0.341098 0,0.471232l-0.0801654 0.0801654c-0.130165,0.130134 -0.341201,0.130134 -0.471335,0l-0.360598 -0.360531c-0.0975669,0.298835 -0.0275669,0.640398 0.209965,0.877898 0.244768,0.244701 0.600031,0.3115 0.905201,0.200567l2.12363 2.12313c-0.111,0.305098 -0.0441654,0.660268 0.200598,0.904965 0.237567,0.2375 0.579201,0.307465 0.878134,0.209933l-0.360598 -0.360531c-0.130165,-0.130134 -0.130165,-0.341098 0,-0.471232l0.0801654 -0.0801654c0.130165,-0.130134 0.341201,-0.130134 0.471335,0l0.360598 0.360531c0.0975669,-0.298835 0.0275669,-0.640398 -0.209965,-0.877898 -0.244732,-0.244732 -0.6,-0.311531 -0.905165,-0.200598z"/>
         </g>
        </g>
       </g>
      </g>
      <g>
       <g>
        <g>
         <g>
          <path id="_743412336" class="fil8" d="M4.73271 4.21738l-2.12363 -2.12309c0.111,-0.305098 0.0441654,-0.660268 -0.200598,-0.904965 -0.237567,-0.2375 -0.579201,-0.307465 -0.878134,-0.209933l0.360598 0.360531c0.130165,0.130134 0.130165,0.341098 0,0.471232l-0.0399016 0.0399016 3.12456 3.12456 0.0402992 -0.0402677c0.130165,-0.130134 0.341201,-0.130134 0.471335,0l0.360598 0.360531c0.0975669,-0.298835 0.0275669,-0.640398 -0.209965,-0.877898 -0.244728,-0.244732 -0.599996,-0.311531 -0.905161,-0.200598z"/>
         </g>
        </g>
       </g>
      </g>
     </g>
    </g>
   </g>
   <g id="Layer_24">
   </g>
   <g id="Layer_25">
   </g>
   <g id="Layer_26">
   </g>
  </g>
 </g>
 <rect class="fil9" width="6.82666" height="6.82666"/>
</svg>
